<mxfile host="app.diagrams.net" modified="2021-06-28T08:06:00.895Z" agent="5.0 (Macintosh; Intel Mac OS X 10_15_7) AppleWebKit/537.36 (KHTML, like Gecko) Chrome/91.0.4472.114 Safari/537.36" etag="4zFujDE36y1XvH2fM1JV" version="14.8.1" type="github">
  <diagram id="ttogbDzHwGB3oSMge-n4" name="Page-1">
    <mxGraphModel dx="1737" dy="799" grid="1" gridSize="10" guides="1" tooltips="1" connect="1" arrows="1" fold="1" page="1" pageScale="1" pageWidth="827" pageHeight="1169" math="0" shadow="0">
      <root>
        <mxCell id="0" />
        <mxCell id="1" parent="0" />
        <mxCell id="p0-6o2zy0Fo4Er9ie5Uh-1" value="&lt;font style=&quot;vertical-align: inherit&quot;&gt;&lt;font style=&quot;vertical-align: inherit&quot;&gt;開始&lt;/font&gt;&lt;/font&gt;" style="strokeWidth=2;html=1;shape=mxgraph.flowchart.terminator;whiteSpace=wrap;" vertex="1" parent="1">
          <mxGeometry x="-593" y="110" width="156" height="60" as="geometry" />
        </mxCell>
        <mxCell id="p0-6o2zy0Fo4Er9ie5Uh-2" value="&lt;font style=&quot;vertical-align: inherit&quot;&gt;&lt;font style=&quot;vertical-align: inherit&quot;&gt;標準出力&lt;/font&gt;&lt;/font&gt;" style="shape=parallelogram;html=1;strokeWidth=2;perimeter=parallelogramPerimeter;whiteSpace=wrap;rounded=1;arcSize=12;size=0.22115384615384615;" vertex="1" parent="1">
          <mxGeometry x="-593" y="210" width="156" height="60" as="geometry" />
        </mxCell>
        <mxCell id="p0-6o2zy0Fo4Er9ie5Uh-4" value="" style="endArrow=none;html=1;entryX=0.5;entryY=1;entryDx=0;entryDy=0;entryPerimeter=0;" edge="1" parent="1" source="p0-6o2zy0Fo4Er9ie5Uh-2" target="p0-6o2zy0Fo4Er9ie5Uh-1">
          <mxGeometry width="50" height="50" relative="1" as="geometry">
            <mxPoint x="-568" y="230" as="sourcePoint" />
            <mxPoint x="-518" y="180" as="targetPoint" />
          </mxGeometry>
        </mxCell>
        <mxCell id="p0-6o2zy0Fo4Er9ie5Uh-5" value="&lt;font style=&quot;vertical-align: inherit&quot;&gt;&lt;font style=&quot;vertical-align: inherit&quot;&gt;標準入力の値を数値に変換&lt;br&gt;&lt;/font&gt;&lt;/font&gt;" style="rounded=1;whiteSpace=wrap;html=1;absoluteArcSize=1;arcSize=14;strokeWidth=2;" vertex="1" parent="1">
          <mxGeometry x="-595.5" y="320" width="161" height="60" as="geometry" />
        </mxCell>
        <mxCell id="p0-6o2zy0Fo4Er9ie5Uh-9" value="" style="endArrow=none;html=1;entryX=0.5;entryY=1;entryDx=0;entryDy=0;exitX=0.5;exitY=0;exitDx=0;exitDy=0;" edge="1" parent="1" source="p0-6o2zy0Fo4Er9ie5Uh-5" target="p0-6o2zy0Fo4Er9ie5Uh-2">
          <mxGeometry width="50" height="50" relative="1" as="geometry">
            <mxPoint x="-515" y="310" as="sourcePoint" />
            <mxPoint x="-493" y="270" as="targetPoint" />
            <Array as="points">
              <mxPoint x="-515" y="290" />
            </Array>
          </mxGeometry>
        </mxCell>
        <mxCell id="p0-6o2zy0Fo4Er9ie5Uh-11" style="edgeStyle=none;rounded=0;orthogonalLoop=1;jettySize=auto;html=1;entryX=0.5;entryY=0;entryDx=0;entryDy=0;" edge="1" parent="1" source="p0-6o2zy0Fo4Er9ie5Uh-5" target="p0-6o2zy0Fo4Er9ie5Uh-5">
          <mxGeometry relative="1" as="geometry" />
        </mxCell>
        <mxCell id="p0-6o2zy0Fo4Er9ie5Uh-27" value="" style="edgeStyle=none;rounded=0;orthogonalLoop=1;jettySize=auto;html=1;" edge="1" parent="1" source="p0-6o2zy0Fo4Er9ie5Uh-13" target="p0-6o2zy0Fo4Er9ie5Uh-14">
          <mxGeometry relative="1" as="geometry" />
        </mxCell>
        <mxCell id="p0-6o2zy0Fo4Er9ie5Uh-31" style="edgeStyle=none;rounded=0;orthogonalLoop=1;jettySize=auto;html=1;" edge="1" parent="1" source="p0-6o2zy0Fo4Er9ie5Uh-13">
          <mxGeometry relative="1" as="geometry">
            <mxPoint x="-347" y="480" as="targetPoint" />
          </mxGeometry>
        </mxCell>
        <mxCell id="p0-6o2zy0Fo4Er9ie5Uh-13" value="&lt;font style=&quot;vertical-align: inherit&quot;&gt;&lt;font style=&quot;vertical-align: inherit&quot;&gt;s数値が3と5で&lt;br&gt;割り切れるか？&lt;/font&gt;&lt;/font&gt;" style="strokeWidth=2;html=1;shape=mxgraph.flowchart.decision;whiteSpace=wrap;" vertex="1" parent="1">
          <mxGeometry x="-600" y="430" width="170" height="100" as="geometry" />
        </mxCell>
        <mxCell id="p0-6o2zy0Fo4Er9ie5Uh-14" value="&lt;font style=&quot;vertical-align: inherit&quot;&gt;&lt;font style=&quot;vertical-align: inherit&quot;&gt;FizzBuzzと表示&lt;/font&gt;&lt;/font&gt;" style="shape=parallelogram;html=1;strokeWidth=2;perimeter=parallelogramPerimeter;whiteSpace=wrap;rounded=1;arcSize=12;size=0.23;" vertex="1" parent="1">
          <mxGeometry x="-595" y="570" width="160" height="60" as="geometry" />
        </mxCell>
        <mxCell id="p0-6o2zy0Fo4Er9ie5Uh-16" value="&lt;font style=&quot;vertical-align: inherit&quot;&gt;&lt;font style=&quot;vertical-align: inherit&quot;&gt;終了&lt;/font&gt;&lt;/font&gt;" style="strokeWidth=2;html=1;shape=mxgraph.flowchart.terminator;whiteSpace=wrap;" vertex="1" parent="1">
          <mxGeometry x="-585" y="690" width="140" height="60" as="geometry" />
        </mxCell>
        <mxCell id="p0-6o2zy0Fo4Er9ie5Uh-22" style="edgeStyle=none;rounded=0;orthogonalLoop=1;jettySize=auto;html=1;entryX=0.5;entryY=1;entryDx=0;entryDy=0;entryPerimeter=0;" edge="1" parent="1" source="p0-6o2zy0Fo4Er9ie5Uh-13" target="p0-6o2zy0Fo4Er9ie5Uh-13">
          <mxGeometry relative="1" as="geometry" />
        </mxCell>
        <mxCell id="p0-6o2zy0Fo4Er9ie5Uh-24" value="" style="endArrow=none;html=1;entryX=0.5;entryY=1;entryDx=0;entryDy=0;entryPerimeter=0;exitX=0.5;exitY=0;exitDx=0;exitDy=0;" edge="1" parent="1" source="p0-6o2zy0Fo4Er9ie5Uh-14" target="p0-6o2zy0Fo4Er9ie5Uh-13">
          <mxGeometry width="50" height="50" relative="1" as="geometry">
            <mxPoint x="-597" y="540" as="sourcePoint" />
            <mxPoint x="-547" y="490" as="targetPoint" />
          </mxGeometry>
        </mxCell>
        <mxCell id="p0-6o2zy0Fo4Er9ie5Uh-25" value="" style="endArrow=none;html=1;entryX=0.5;entryY=1;entryDx=0;entryDy=0;exitX=0.5;exitY=0;exitDx=0;exitDy=0;exitPerimeter=0;" edge="1" parent="1" source="p0-6o2zy0Fo4Er9ie5Uh-16" target="p0-6o2zy0Fo4Er9ie5Uh-14">
          <mxGeometry width="50" height="50" relative="1" as="geometry">
            <mxPoint x="-507" y="680" as="sourcePoint" />
            <mxPoint x="-547" y="490" as="targetPoint" />
          </mxGeometry>
        </mxCell>
        <mxCell id="p0-6o2zy0Fo4Er9ie5Uh-28" value="&lt;font style=&quot;vertical-align: inherit&quot;&gt;&lt;font style=&quot;vertical-align: inherit&quot;&gt;Yes&lt;br&gt;&lt;/font&gt;&lt;/font&gt;" style="text;html=1;resizable=0;autosize=1;align=center;verticalAlign=middle;points=[];fillColor=none;strokeColor=none;rounded=0;" vertex="1" parent="1">
          <mxGeometry x="-577" y="530" width="40" height="20" as="geometry" />
        </mxCell>
        <mxCell id="p0-6o2zy0Fo4Er9ie5Uh-30" value="" style="endArrow=none;html=1;entryX=0.5;entryY=1;entryDx=0;entryDy=0;" edge="1" parent="1" source="p0-6o2zy0Fo4Er9ie5Uh-13" target="p0-6o2zy0Fo4Er9ie5Uh-5">
          <mxGeometry width="50" height="50" relative="1" as="geometry">
            <mxPoint x="-397" y="480" as="sourcePoint" />
            <mxPoint x="-347" y="430" as="targetPoint" />
          </mxGeometry>
        </mxCell>
        <mxCell id="p0-6o2zy0Fo4Er9ie5Uh-33" style="edgeStyle=none;rounded=0;orthogonalLoop=1;jettySize=auto;html=1;exitX=0.5;exitY=1;exitDx=0;exitDy=0;exitPerimeter=0;" edge="1" parent="1" source="p0-6o2zy0Fo4Er9ie5Uh-32">
          <mxGeometry relative="1" as="geometry">
            <mxPoint x="-257" y="570" as="targetPoint" />
          </mxGeometry>
        </mxCell>
        <mxCell id="p0-6o2zy0Fo4Er9ie5Uh-40" style="edgeStyle=none;rounded=0;orthogonalLoop=1;jettySize=auto;html=1;entryX=0;entryY=0.5;entryDx=0;entryDy=0;entryPerimeter=0;" edge="1" parent="1" source="p0-6o2zy0Fo4Er9ie5Uh-32" target="p0-6o2zy0Fo4Er9ie5Uh-38">
          <mxGeometry relative="1" as="geometry" />
        </mxCell>
        <mxCell id="p0-6o2zy0Fo4Er9ie5Uh-32" value="&lt;font style=&quot;vertical-align: inherit&quot;&gt;&lt;font style=&quot;vertical-align: inherit&quot;&gt;数値が3で&lt;br&gt;割り切れるか？&lt;br&gt;&lt;/font&gt;&lt;/font&gt;" style="strokeWidth=2;html=1;shape=mxgraph.flowchart.decision;whiteSpace=wrap;" vertex="1" parent="1">
          <mxGeometry x="-347" y="430" width="180" height="100" as="geometry" />
        </mxCell>
        <mxCell id="p0-6o2zy0Fo4Er9ie5Uh-34" value="&lt;font style=&quot;vertical-align: inherit&quot;&gt;&lt;font style=&quot;vertical-align: inherit&quot;&gt;No&lt;/font&gt;&lt;/font&gt;" style="text;html=1;resizable=0;autosize=1;align=center;verticalAlign=middle;points=[];fillColor=none;strokeColor=none;rounded=0;" vertex="1" parent="1">
          <mxGeometry x="-407" y="440" width="30" height="20" as="geometry" />
        </mxCell>
        <mxCell id="p0-6o2zy0Fo4Er9ie5Uh-35" value="&lt;font style=&quot;vertical-align: inherit&quot;&gt;&lt;font style=&quot;vertical-align: inherit&quot;&gt;Yes&lt;/font&gt;&lt;/font&gt;" style="text;html=1;resizable=0;autosize=1;align=center;verticalAlign=middle;points=[];fillColor=none;strokeColor=none;rounded=0;" vertex="1" parent="1">
          <mxGeometry x="-317" y="530" width="40" height="20" as="geometry" />
        </mxCell>
        <mxCell id="p0-6o2zy0Fo4Er9ie5Uh-36" value="&lt;font style=&quot;vertical-align: inherit&quot;&gt;&lt;font style=&quot;vertical-align: inherit&quot;&gt;Fizzと表示&lt;/font&gt;&lt;/font&gt;" style="shape=parallelogram;html=1;strokeWidth=2;perimeter=parallelogramPerimeter;whiteSpace=wrap;rounded=1;arcSize=12;size=0.23;" vertex="1" parent="1">
          <mxGeometry x="-338.5" y="570" width="163" height="60" as="geometry" />
        </mxCell>
        <mxCell id="p0-6o2zy0Fo4Er9ie5Uh-37" value="" style="endArrow=none;html=1;entryX=0.5;entryY=1;entryDx=0;entryDy=0;" edge="1" parent="1" target="p0-6o2zy0Fo4Er9ie5Uh-36">
          <mxGeometry width="50" height="50" relative="1" as="geometry">
            <mxPoint x="-515" y="660" as="sourcePoint" />
            <mxPoint x="-257" y="630" as="targetPoint" />
            <Array as="points">
              <mxPoint x="-257" y="660" />
            </Array>
          </mxGeometry>
        </mxCell>
        <mxCell id="p0-6o2zy0Fo4Er9ie5Uh-41" style="edgeStyle=none;rounded=0;orthogonalLoop=1;jettySize=auto;html=1;entryX=0.5;entryY=0;entryDx=0;entryDy=0;" edge="1" parent="1" source="p0-6o2zy0Fo4Er9ie5Uh-38" target="p0-6o2zy0Fo4Er9ie5Uh-39">
          <mxGeometry relative="1" as="geometry" />
        </mxCell>
        <mxCell id="p0-6o2zy0Fo4Er9ie5Uh-49" style="edgeStyle=none;rounded=0;orthogonalLoop=1;jettySize=auto;html=1;entryX=0;entryY=0.5;entryDx=0;entryDy=0;entryPerimeter=0;" edge="1" parent="1" source="p0-6o2zy0Fo4Er9ie5Uh-38" target="p0-6o2zy0Fo4Er9ie5Uh-46">
          <mxGeometry relative="1" as="geometry" />
        </mxCell>
        <mxCell id="p0-6o2zy0Fo4Er9ie5Uh-38" value="&lt;font style=&quot;vertical-align: inherit&quot;&gt;&lt;font style=&quot;vertical-align: inherit&quot;&gt;数値が5で&lt;br&gt;割り切れるか？&lt;br&gt;&lt;/font&gt;&lt;/font&gt;" style="strokeWidth=2;html=1;shape=mxgraph.flowchart.decision;whiteSpace=wrap;" vertex="1" parent="1">
          <mxGeometry x="-80" y="430" width="180" height="100" as="geometry" />
        </mxCell>
        <mxCell id="p0-6o2zy0Fo4Er9ie5Uh-39" value="&lt;font style=&quot;vertical-align: inherit&quot;&gt;&lt;font style=&quot;vertical-align: inherit&quot;&gt;Buzzと表示&lt;/font&gt;&lt;/font&gt;" style="shape=parallelogram;html=1;strokeWidth=2;perimeter=parallelogramPerimeter;whiteSpace=wrap;rounded=1;arcSize=12;size=0.23;" vertex="1" parent="1">
          <mxGeometry x="-70" y="570" width="160" height="60" as="geometry" />
        </mxCell>
        <mxCell id="p0-6o2zy0Fo4Er9ie5Uh-42" value="&lt;font style=&quot;vertical-align: inherit&quot;&gt;&lt;font style=&quot;vertical-align: inherit&quot;&gt;Yes&lt;/font&gt;&lt;/font&gt;" style="text;html=1;resizable=0;autosize=1;align=center;verticalAlign=middle;points=[];fillColor=none;strokeColor=none;rounded=0;" vertex="1" parent="1">
          <mxGeometry x="-50" y="530" width="40" height="20" as="geometry" />
        </mxCell>
        <mxCell id="p0-6o2zy0Fo4Er9ie5Uh-43" value="&lt;font style=&quot;vertical-align: inherit&quot;&gt;&lt;font style=&quot;vertical-align: inherit&quot;&gt;No&lt;/font&gt;&lt;/font&gt;" style="text;html=1;resizable=0;autosize=1;align=center;verticalAlign=middle;points=[];fillColor=none;strokeColor=none;rounded=0;" vertex="1" parent="1">
          <mxGeometry x="-135" y="440" width="30" height="20" as="geometry" />
        </mxCell>
        <mxCell id="p0-6o2zy0Fo4Er9ie5Uh-44" value="" style="endArrow=none;html=1;entryX=0.5;entryY=1;entryDx=0;entryDy=0;" edge="1" parent="1" target="p0-6o2zy0Fo4Er9ie5Uh-39">
          <mxGeometry width="50" height="50" relative="1" as="geometry">
            <mxPoint x="-510" y="660" as="sourcePoint" />
            <mxPoint x="10" y="654.5" as="targetPoint" />
            <Array as="points">
              <mxPoint x="10" y="660" />
            </Array>
          </mxGeometry>
        </mxCell>
        <mxCell id="p0-6o2zy0Fo4Er9ie5Uh-45" style="edgeStyle=none;rounded=0;orthogonalLoop=1;jettySize=auto;html=1;entryX=0.5;entryY=0;entryDx=0;entryDy=0;" edge="1" parent="1" source="p0-6o2zy0Fo4Er9ie5Uh-5" target="p0-6o2zy0Fo4Er9ie5Uh-5">
          <mxGeometry relative="1" as="geometry" />
        </mxCell>
        <mxCell id="p0-6o2zy0Fo4Er9ie5Uh-50" style="edgeStyle=none;rounded=0;orthogonalLoop=1;jettySize=auto;html=1;entryX=0.5;entryY=0;entryDx=0;entryDy=0;" edge="1" parent="1" source="p0-6o2zy0Fo4Er9ie5Uh-46" target="p0-6o2zy0Fo4Er9ie5Uh-47">
          <mxGeometry relative="1" as="geometry" />
        </mxCell>
        <mxCell id="p0-6o2zy0Fo4Er9ie5Uh-46" value="それ以外の数値" style="strokeWidth=2;html=1;shape=mxgraph.flowchart.decision;whiteSpace=wrap;" vertex="1" parent="1">
          <mxGeometry x="180" y="430" width="170" height="100" as="geometry" />
        </mxCell>
        <mxCell id="p0-6o2zy0Fo4Er9ie5Uh-47" value="数値と表示" style="shape=parallelogram;html=1;strokeWidth=2;perimeter=parallelogramPerimeter;whiteSpace=wrap;rounded=1;arcSize=12;size=0.23;" vertex="1" parent="1">
          <mxGeometry x="185" y="570" width="160" height="60" as="geometry" />
        </mxCell>
        <mxCell id="p0-6o2zy0Fo4Er9ie5Uh-51" value="" style="endArrow=none;html=1;entryX=0.5;entryY=1;entryDx=0;entryDy=0;" edge="1" parent="1" target="p0-6o2zy0Fo4Er9ie5Uh-47">
          <mxGeometry width="50" height="50" relative="1" as="geometry">
            <mxPoint x="-510" y="660" as="sourcePoint" />
            <mxPoint x="260" y="650" as="targetPoint" />
            <Array as="points">
              <mxPoint x="265" y="660" />
            </Array>
          </mxGeometry>
        </mxCell>
        <mxCell id="p0-6o2zy0Fo4Er9ie5Uh-52" value="Yes" style="text;html=1;resizable=0;autosize=1;align=center;verticalAlign=middle;points=[];fillColor=none;strokeColor=none;rounded=0;" vertex="1" parent="1">
          <mxGeometry x="210" y="530" width="40" height="20" as="geometry" />
        </mxCell>
        <mxCell id="p0-6o2zy0Fo4Er9ie5Uh-53" value="No" style="text;html=1;resizable=0;autosize=1;align=center;verticalAlign=middle;points=[];fillColor=none;strokeColor=none;rounded=0;" vertex="1" parent="1">
          <mxGeometry x="125" y="440" width="30" height="20" as="geometry" />
        </mxCell>
      </root>
    </mxGraphModel>
  </diagram>
</mxfile>
